HIERARCHY
ROOT Hips
{
	OFFSET 0.0000 0.0000 0.0000
	CHANNELS 6 Xposition Yposition Zposition Zrotation Xrotation Yrotation
	JOINT Ab
	{
		OFFSET -0.0000 8.0846 -0.0000
		CHANNELS 3 Zrotation Xrotation Yrotation
		JOINT Chest
		{
			OFFSET -0.0000 25.0068 -0.0000
			CHANNELS 3 Zrotation Xrotation Yrotation
			JOINT Neck
			{
				OFFSET -0.0000 25.0068 0.0000
				CHANNELS 3 Zrotation Xrotation Yrotation
				JOINT Head
				{
					OFFSET -0.0000 10.7556 0.0000
					CHANNELS 3 Zrotation Xrotation Yrotation
					End Site
					{
						OFFSET -0.0000 16.6222 0.0000
					}
				}
			}
			JOINT LeftCollar
			{
				OFFSET -0.0000 25.0068 0.0000
				CHANNELS 3 Zrotation Xrotation Yrotation
				JOINT LeftShoulder
				{
					OFFSET 19.5556 -0.0000 0.0000
					CHANNELS 3 Zrotation Xrotation Yrotation
					JOINT LeftElbow
					{
						OFFSET 27.1828 0.0000 0.0000
						CHANNELS 3 Zrotation Xrotation Yrotation
						JOINT LeftWrist
						{
							OFFSET 23.3157 0.0000 0.0000
							CHANNELS 3 Zrotation Xrotation Yrotation
							End Site
							{
								OFFSET 0.0000 -14.6667 0.0000
							}
						}
					}
				}
			}
			JOINT RightCollar
			{
				OFFSET -0.0000 25.0068 0.0000
				CHANNELS 3 Zrotation Xrotation Yrotation
				JOINT RightShoulder
				{
					OFFSET -19.5556 0.0000 0.0000
					CHANNELS 3 Zrotation Xrotation Yrotation
					JOINT RightElbow
					{
						OFFSET -27.1828 0.0000 0.0000
						CHANNELS 3 Zrotation Xrotation Yrotation
						JOINT RightWrist
						{
							OFFSET -23.3157 0.0000 0.0000
							CHANNELS 3 Zrotation Xrotation Yrotation
							End Site
							{
								OFFSET -0.0000 -14.6667 0.0000
							}
						}
					}
				}
			}
		}
	}
	JOINT LeftHip
	{
		OFFSET 11.7333 0.0000 0.0000
		CHANNELS 3 Zrotation Xrotation Yrotation
		JOINT LeftKnee
		{
			OFFSET -0.0000 -40.8688 0.0000
			CHANNELS 3 Zrotation Xrotation Yrotation
			JOINT LeftAnkle
			{
				OFFSET -0.0000 -44.4337 0.0000
				CHANNELS 3 Zrotation Xrotation Yrotation
				End Site
				{
					OFFSET -0.0000 -4.8889 16.6222
				}
			}
		}
	}
	JOINT RightHip
	{
		OFFSET -11.7333 0.0000 0.0000
		CHANNELS 3 Zrotation Xrotation Yrotation
		JOINT RightKnee
		{
			OFFSET -0.0000 -40.8688 0.0000
			CHANNELS 3 Zrotation Xrotation Yrotation
			JOINT RightAnkle
			{
				OFFSET -0.0000 -44.4337 0.0000
				CHANNELS 3 Zrotation Xrotation Yrotation
				End Site
				{
					OFFSET -0.0000 -4.8889 16.6222
				}
			}
		}
	}
}
MOTION
Frames: 11
Frame Time: 0.010000
-6.1184 88.8287 187.0820 2.6703 358.6174 176.4548 1.6647 358.7585 358.3979 358.0900 12.7922 358.5946 1.0218 359.2541 1.4669 1.0575 25.3827 1.2188 339.7842 358.4927 8.5808 301.5652 32.6628 353.2726 17.4756 354.1783 323.3210 82.5872 0.6509 344.1072 22.5237 359.3756 356.8214 59.8263 44.4095 9.2830 336.5325 353.9624 28.3464 276.2855 353.5965 16.8971 0.6335 356.5536 358.8752 359.3617 10.4184 356.4674 358.2841 352.3746 21.5204 359.6523 349.7162 1.2940 358.6913 19.3190 9.1409 359.6248 345.1709 338.3228 
-6.1293 88.8294 187.0652 2.6599 358.6275 176.4575 1.6540 358.7902 358.3836 358.0824 12.7534 358.5809 1.0330 359.2686 1.4439 1.0228 25.4006 1.2063 339.7781 358.4572 8.6219 301.5470 32.8183 353.2629 17.6198 354.1143 323.3754 82.5573 0.6497 344.2363 22.5343 359.3552 356.8087 59.8520 44.4317 9.2350 336.4941 353.9736 28.3659 276.2891 353.6014 16.8595 0.6189 356.5379 358.8445 359.3570 10.4823 356.4201 358.4324 352.2623 21.5722 359.6253 349.7420 1.2530 358.6932 19.3060 9.1477 359.5923 345.1698 338.3499 
-6.1400 88.8292 187.0592 2.6533 358.6121 176.4580 1.6252 358.7841 358.3768 358.1056 12.7638 358.5723 1.0496 359.2561 1.4383 1.0032 25.3786 1.2053 339.7735 358.4765 8.5776 301.4847 32.6360 353.3359 17.4487 354.1858 323.3357 82.6837 0.6882 344.1099 22.5241 359.3838 356.7904 59.8008 44.4149 9.3062 336.5808 353.9884 28.3504 276.2310 353.6123 16.8455 0.6061 356.4980 358.8730 359.3611 10.5361 356.3635 358.4459 352.2418 21.6017 359.6104 349.7387 1.3207 358.7127 19.2910 9.0887 359.5996 345.1504 338.3390 
-6.1531 88.8275 187.0451 2.6515 358.6041 176.4534 1.5999 358.7876 358.3779 358.1280 12.7496 358.5711 1.0231 359.2781 1.4113 1.0458 25.3448 1.1692 339.7563 358.4456 8.5998 301.4703 32.8580 353.3635 17.6347 354.1033 323.3703 82.5589 0.6810 344.3092 22.5195 359.3643 356.7781 59.8078 44.4271 9.2934 336.4938 353.9866 28.3635 276.3350 353.5596 16.7495 0.5994 356.4512 358.8357 359.3448 10.6243 356.3869 358.4305 352.1777 21.5996 359.5950 349.7501 1.3259 358.7223 19.2643 9.0651 359.5789 345.1532 338.3614 
-6.1664 88.8272 187.0269 2.6426 358.6070 176.4344 1.5464 358.7870 358.3903 358.1808 12.7627 358.5782 1.0275 359.2776 1.3867 1.0272 25.3405 1.1480 339.7228 358.4752 8.5832 301.4467 32.7701 353.3815 17.5083 354.1967 323.4176 82.6388 0.6314 344.1708 22.5106 359.3648 356.7575 59.7749 44.4400 9.3137 336.5101 353.9635 28.3627 276.3573 353.6291 16.7374 0.5857 356.4356 358.8235 359.3232 10.6841 356.4065 358.4469 352.1614 21.6439 359.5802 349.7717 1.3620 358.7286 19.2580 9.0477 359.6975 345.1146 338.3798 
-6.1810 88.8258 187.0120 2.6491 358.6077 176.4212 1.5062 358.7809 358.4008 358.2378 12.8098 358.5840 1.0153 359.2162 1.3602 1.0518 25.3573 1.1146 339.7021 358.4721 8.5749 301.4168 32.8036 353.3710 17.5483 354.1323 323.3832 82.6250 0.7091 344.2267 22.4772 359.3386 356.7361 59.7968 44.4478 9.3214 336.4305 353.9658 28.3690 276.4245 353.5859 16.7050 0.5891 356.3383 358.6849 359.2747 10.8872 356.5268 358.4916 352.0438 21.6769 359.5762 349.7874 1.3687 358.7230 19.2399 9.0553 359.7202 345.0922 338.4002 
-6.1977 88.8258 186.9925 2.6476 358.6122 176.3990 1.4919 358.7961 358.4000 358.2373 12.8008 358.5827 1.0316 359.2156 1.3464 1.0594 25.3668 1.0997 339.7091 358.4448 8.5415 301.2926 32.6377 353.4707 17.4765 354.1607 323.3389 82.6169 0.7302 344.0745 22.4868 359.3381 356.7225 59.7931 44.4557 9.3161 336.4655 353.9846 28.3520 276.3778 353.5641 16.7212 0.5801 356.3423 358.6959 359.2602 10.9168 356.5564 358.4888 352.0172 21.6554 359.5623 349.8146 1.4141 358.7332 19.2193 9.0202 359.7407 345.1059 338.4335 
-6.2145 88.8261 186.9765 2.6486 358.6112 176.3704 1.4834 358.8240 358.4066 358.2308 12.7700 358.5906 1.0364 359.2252 1.3335 1.0560 25.3663 1.0902 339.7023 358.4785 8.5373 301.2358 32.5168 353.5087 17.3378 354.2285 323.3761 82.6207 0.7129 343.9226 22.4980 359.3718 356.7472 59.8263 44.3427 9.2707 336.7288 354.1026 28.0826 275.8401 352.6554 17.3785 0.5740 356.3443 358.7034 359.2517 10.9404 356.5350 358.5251 352.0035 21.7067 359.5519 349.8162 1.4222 358.7414 19.2196 8.9995 1.0585 344.8790 338.7406 
-6.2356 88.8250 186.9615 2.6539 358.5942 176.3412 1.4856 358.8255 358.4108 358.2182 12.7538 358.5953 1.0080 359.5891 1.0704 1.0473 25.1810 0.8282 339.7196 358.4528 8.4939 301.1148 32.3558 353.6282 17.3155 354.2102 323.2524 82.5487 0.7784 343.8321 22.5046 359.3714 356.7619 59.8270 44.3657 9.2446 336.6566 354.0960 28.1033 275.9059 352.6291 17.3612 0.5688 356.3415 358.7471 359.2478 10.9383 356.5295 358.5241 351.9895 21.7077 359.5412 349.8127 1.4526 358.7434 19.2126 9.0523 359.7401 345.0743 338.4263 
-6.2590 88.8232 186.9394 2.6562 358.6006 176.3049 1.4669 358.8381 358.4144 358.2271 12.7608 358.5960 1.0129 359.5678 1.0734 1.0567 25.2128 0.8340 339.7061 358.4507 8.5236 301.0938 32.4675 353.6530 17.3444 354.2134 323.3152 82.5220 0.7080 343.8989 22.4941 359.3440 356.7812 59.8704 44.3243 9.1956 336.6538 354.0628 28.1390 275.8596 352.5701 17.3872 0.5566 356.3553 358.7496 359.2406 10.9647 356.5440 358.5284 351.9363 21.7276 359.5227 349.8322 1.4515 358.7540 19.1940 9.0432 359.7557 345.0694 338.3888 
-6.2829 88.8218 186.9311 2.6548 358.5594 176.2712 1.4392 358.8384 358.4109 358.2425 12.7201 358.5926 1.0139 359.5628 1.0623 1.0591 25.2265 0.8208 339.6986 358.4779 8.5036 301.0112 32.2718 353.7221 17.1992 354.2718 323.2700 82.5611 0.7404 343.7528 22.5248 359.3766 356.7625 59.7538 44.3322 9.2601 336.7668 354.1005 28.1103 275.8769 352.5438 17.4228 0.5432 356.3118 358.7865 359.2384 10.9841 356.5586 358.5807 351.9405 21.7260 359.5003 349.7856 1.4717 358.7700 19.2093 9.0048 1.2191 344.8137 338.8225 
